PathFileType	4	(X/Y/Z)	D:\TRACE\v60_Jaco2_6-2-23\JustBodyDRS_Motion2_8-v60.trc
DataRate	CameraRate	NumFrames	NumMarkers	Units	OrigDataRate	OrigDataStartFrame	OrigNumFrames
100.00	100.00	      41	9	mm	100.00	6050	      6914
Frame#	Time	front left toe			Front right toe			aft left toe			aft right toe			Arm			FL body			FR body			AL Body			AR Body			
		X1	Y1	Z1	X2	Y2	Z2	X3	Y3	Z3	X4	Y4	Z4	X5	Y5	Z5	X6	Y6	Z6	X7	Y7	Z7	X8	Y8	Z8	X9	Y9	Z9	

6050	60.490	-208.44608	21.78683	-235.40862	105.90166	139.81274	-236.58412	-292.30307	139.59195	379.69080	147.05139	10.32185	409.32440	-152.35658	1197.20959	-374.26929	-113.89977	565.55042	-363.79205	45.69884	569.04871	-359.15286	-144.26128	570.31738	582.48779	12.04269	566.89325	587.14087	
6051	60.500	-207.73952	22.27980	-235.20755	108.18459	142.45099	-234.02736	-288.79520	144.33374	381.81784	148.09898	9.73675	409.68613	-151.20421	1197.94580	-372.29791	-113.34142	565.87885	-362.75113	45.76502	568.96063	-358.20877	-142.40013	569.79822	583.48383	13.77240	565.79730	588.16748	
6052	60.510	-206.94162	22.72178	-234.58073	110.10958	142.80118	-231.73936	-286.63025	145.35583	384.85226	148.77396	8.37807	409.91989	-150.02025	1198.19397	-370.40375	-113.11644	566.26044	-362.09531	45.99923	568.87231	-357.49329	-140.94402	569.32886	584.15094	14.05251	565.47351	588.75409	
6053	60.520	-206.02789	23.42318	-233.93755	111.35374	141.02695	-229.46437	-285.08322	144.03844	387.69046	150.33444	7.82195	410.53049	-148.96761	1199.02063	-368.97217	-112.62148	566.67566	-361.17471	46.48918	569.06274	-356.90796	-139.26402	568.83038	584.88184	17.38792	564.62329	589.45221	
6054	60.530	-205.10638	24.01826	-233.69896	112.36591	137.60159	-227.25850	-283.79498	140.65282	390.56854	150.82745	6.92738	410.50385	-147.00578	1199.50439	-367.51993	-113.51392	567.73621	-360.93729	46.63065	569.29004	-356.45428	-137.78682	568.32458	585.69550	19.01480	563.83777	590.02594	
6055	60.540	-204.31516	24.59843	-233.33595	113.24147	132.67720	-225.28180	-282.20154	136.11879	393.04776	151.39417	5.88913	410.66165	-145.15619	1200.26624	-366.32269	-113.58640	568.20056	-360.09338	46.33390	569.22736	-356.04099	-136.62364	568.13947	586.78546	20.29433	563.21289	590.78699	
6056	60.550	-203.91013	25.04217	-232.86360	113.92572	126.74810	-223.33368	-280.06250	130.59653	395.61975	152.58115	5.18485	411.06924	-143.27370	1200.55286	-365.39313	-112.80649	568.32367	-358.82303	46.36728	569.46448	-355.33987	-134.61726	567.15344	586.90027	21.87492	562.29071	591.92902	
6057	60.560	-203.28477	25.49737	-232.40030	114.52857	119.90434	-221.45372	-277.42587	124.01152	398.40155	153.17430	4.40868	411.01950	-141.60732	1200.78247	-363.52771	-112.84588	568.95331	-358.37146	46.12165	569.64178	-354.96637	-134.53091	566.75403	587.91388	22.70965	561.31799	592.22601	
6058	60.570	-202.74214	26.00217	-231.98720	115.20770	111.98724	-220.02835	-275.00143	116.65846	401.01926	153.72273	3.35078	411.34790	-139.91914	1201.84192	-361.94714	-113.87155	569.72437	-358.32257	46.16774	569.79382	-354.78973	-133.46939	566.41095	588.54083	23.80462	560.36511	592.87067	
6059	60.580	-201.99339	26.28108	-231.78352	115.89564	103.20756	-218.51511	-273.07706	108.58274	403.35568	154.57333	2.73653	411.65613	-137.53458	1203.35364	-360.57401	-113.61476	570.43408	-357.60989	46.17900	570.09131	-354.23865	-132.76927	565.77545	588.93774	25.03445	559.41467	593.31372	
6060	60.590	-201.26347	26.89951	-231.44177	117.14252	93.90511	-217.00934	-271.49271	99.78719	405.56754	155.56909	2.15935	411.74313	-136.03242	1204.10742	-358.93884	-113.87671	571.12708	-356.93472	46.17214	570.23413	-353.64380	-131.80579	565.15900	589.81799	25.85321	558.47742	593.81696	
6061	60.600	-200.69626	27.14972	-231.17886	118.60439	84.11716	-215.65756	-270.28052	90.35896	407.47107	155.92963	1.33606	412.06619	-135.38345	1203.75940	-357.72302	-113.26921	571.36542	-356.12326	46.50829	570.47949	-353.48886	-130.90666	564.75256	590.09869	27.10774	557.76880	594.52557	
6062	60.610	-200.01788	27.33245	-230.80934	119.98696	74.96738	-214.43716	-268.46030	80.91850	408.92615	156.12140	0.20555	412.11322	-132.88840	1205.33765	-356.91617	-113.33023	571.71088	-355.50854	46.27930	570.50977	-353.25137	-129.69347	563.56836	590.27539	27.65280	556.70355	595.13116	
6063	60.620	-199.64774	27.75959	-230.48331	121.10708	65.81256	-213.20935	-266.82932	71.30079	409.80841	157.00613	-0.13815	412.48285	-130.07231	1205.61523	-353.68860	-114.44953	572.44775	-355.28500	45.94218	570.56860	-352.78134	-128.85851	562.74512	591.10803	28.14075	556.13031	595.67987	
6064	60.630	-199.15393	28.38955	-229.93843	122.37431	56.66670	-212.30991	-265.46350	61.81238	410.38455	157.62589	-1.05942	412.59723	-130.06087	1206.70361	-354.76132	-113.75462	572.91821	-354.28012	45.98064	570.82721	-352.05563	-128.80617	562.57269	591.50372	28.84087	555.29419	596.11469	
6065	60.640	-199.01048	28.83534	-229.69824	123.60789	48.17762	-211.39751	-264.08533	52.76168	410.68771	158.05841	-1.67323	412.85202	-128.87624	1207.40796	-352.71552	-114.94340	573.99042	-354.05521	45.61737	571.22528	-351.28592	-127.96331	561.92224	592.04498	29.44144	554.57349	596.80292	
6066	60.650	-198.34761	29.36451	-229.41689	125.09808	39.61439	-210.69919	-262.08926	42.98266	411.51648	158.32712	-2.44885	413.14783	-128.12189	1208.10388	-351.16800	-114.60345	574.68274	-353.47589	45.31492	571.72540	-350.94586	-127.52341	561.07098	593.07574	27.40623	552.73846	595.88538	
6067	60.660	-197.77251	29.79200	-228.95834	125.87923	32.04600	-210.26147	-261.53546	34.36036	411.50800	158.97528	-3.13874	413.31522	-127.57641	1208.47754	-349.22971	-114.91270	575.42572	-352.79059	44.96294	572.27130	-350.43616	-127.19592	560.25812	593.35553	27.78546	551.65179	596.32825	
6068	60.670	-197.27693	29.95427	-228.76639	126.93248	31.69838	-212.61252	-261.10449	26.23484	411.23157	159.26283	-3.83858	413.67667	-127.89365	1209.08313	-347.96222	-114.56404	575.80701	-351.88882	45.06369	572.88843	-350.15518	-126.65736	559.39990	593.96985	28.24115	550.66327	596.78857	
6069	60.680	-196.59331	30.22590	-228.45895	127.94984	30.24839	-212.92094	-260.21460	19.16593	410.13715	160.04385	-4.45411	413.59579	-127.10595	1210.09229	-345.00806	-114.96983	577.08020	-351.11899	44.54898	574.12225	-349.65698	-126.31283	558.23462	594.53754	28.56916	549.51782	597.63477	
6070	60.690	-196.16731	30.92619	-228.28111	128.29654	30.63579	-211.71931	-258.69440	12.15305	409.35001	160.72246	-5.11056	413.95233	-127.26730	1212.11951	-343.53741	-115.25571	578.65594	-350.43637	44.61417	575.92004	-348.79230	-126.24516	557.20227	595.32104	28.76848	548.63269	598.16968	
6071	60.700	-195.77859	31.68980	-227.71964	128.11673	32.18087	-210.91180	-256.62552	4.63042	407.98441	160.69640	-5.46185	414.22070	-129.13719	1212.44299	-341.10678	-116.07181	580.87915	-350.05472	43.93074	577.78314	-347.95328	-125.69261	556.00238	596.33820	29.07205	547.59137	599.30359	
6072	60.710	-195.87547	32.72599	-227.69824	127.50266	33.62510	-209.98366	-255.76031	-11.57263	407.92819	160.80241	-6.34465	414.27054	-130.71518	1214.05322	-337.87036	-116.37590	582.33502	-349.02786	44.11685	579.24255	-347.55701	-125.46822	555.36017	596.92328	29.79603	546.47601	599.59985	
6073	60.720	-195.03812	32.34300	-227.47966	127.99635	34.21463	-210.20953	-259.49298	-11.46153	404.71194	160.58131	-7.05325	414.39206	-132.01253	1215.73792	-334.40564	-117.06571	583.67926	-348.33206	43.23775	580.24017	-347.03592	-124.69303	556.06561	597.87756	30.17827	546.91962	599.94525	
6074	60.730	-196.19431	34.57875	-227.03598	127.06117	33.07964	-207.58914	-258.97830	-10.06196	408.04428	160.58731	-5.50451	414.18164	-131.24823	1218.01917	-333.63748	-117.81752	584.62848	-347.47324	42.60231	580.73907	-346.50784	-123.50533	557.90558	598.54663	30.66214	548.15204	600.57550	
6075	60.740	-194.97061	39.45248	-227.84529	126.79317	33.19828	-208.02391	-257.22183	-11.54854	410.29123	158.23796	-2.94825	412.88376	-134.14714	1219.17871	-330.62991	-118.69540	586.05487	-346.72983	41.64130	582.74841	-346.15085	-123.30579	557.79828	598.99719	31.63079	548.25958	601.09503	
6076	60.750	-192.10612	44.03280	-224.14647	127.13700	33.72722	-207.56059	-257.86310	-12.38531	407.78372	156.37125	0.70792	417.04370	-130.82594	1221.62390	-331.04129	-119.59739	588.13916	-346.38428	40.54595	585.00031	-345.87799	-122.09304	556.35077	599.32758	33.22176	546.87854	601.39764	
6077	60.760	-187.86955	53.60569	-222.72346	127.09187	33.66267	-208.02554	-257.45059	-12.45771	410.09113	154.21529	7.66368	417.73697	-131.48595	1222.80640	-330.29443	-120.36179	590.37781	-346.08011	39.59368	586.70654	-345.68369	-120.81805	554.51550	599.73969	34.82777	544.76141	599.81842	
6078	60.770	-187.13441	64.09024	-222.98117	127.00732	33.70148	-207.97885	-257.47040	-13.42108	409.81494	153.09540	16.45088	416.64432	-130.51485	1223.44250	-328.94809	-120.80582	592.07056	-345.99231	39.54092	587.91388	-346.14740	-119.99067	553.46155	599.47742	36.23542	543.33667	599.60962	
6079	60.780	-188.53249	76.40679	-223.93307	127.31603	33.82764	-207.87115	-257.24149	-13.98190	409.54562	152.73029	28.57278	413.71542	-130.82152	1223.64233	-326.23401	-120.54316	592.63306	-346.06876	39.82814	589.16467	-346.38153	-119.21478	552.08148	599.35614	36.38951	542.07593	599.38800	
6080	60.790	-191.35396	88.88409	-226.36623	127.39928	33.98776	-207.71654	-257.27826	-14.49225	409.94159	155.44945	40.44696	409.75247	-131.53152	1224.88977	-323.26526	-120.20538	593.71753	-346.09149	40.19199	589.86560	-346.41562	-119.02258	550.60114	599.26898	37.31891	540.78687	599.38257	
6081	60.800	-193.90012	101.99953	-227.59833	127.39055	34.14128	-207.61877	-257.41629	-14.87845	410.06808	158.64120	53.58205	406.81958	-132.58247	1226.71716	-320.49655	-119.50200	594.59619	-346.08609	40.85110	590.93298	-346.36313	-118.52121	548.63550	599.05920	37.75734	538.66382	599.02045	
6082	60.810	-195.89980	115.10922	-228.63065	127.35412	34.31779	-207.61487	-257.54724	-15.35473	410.11804	162.26735	65.90295	404.62640	-132.74098	1227.99658	-318.32401	-118.83666	595.91357	-346.32971	41.23993	591.55182	-346.11652	-118.06750	546.53918	598.82092	38.11586	536.40619	598.74237	
6083	60.820	-197.31421	126.73569	-228.94298	127.32121	34.45176	-207.54709	-257.58798	-15.95667	410.23431	164.48917	77.43558	402.68179	-131.87093	1228.64819	-316.69376	-117.94057	596.43286	-346.42453	42.13661	592.63611	-346.20309	-117.69022	544.31140	598.51245	38.14326	534.05127	598.17908	
6084	60.830	-198.46986	137.91034	-229.19034	127.15366	34.62816	-207.34012	-258.04163	-16.68645	410.34186	164.99934	88.09518	401.36450	-130.26945	1228.87305	-315.40833	-117.65844	597.19263	-346.21451	42.93026	593.51855	-346.58661	-116.95770	542.38226	598.23724	39.23481	532.29645	598.15619	
6085	60.840	-199.37817	147.99170	-229.60646	126.81643	34.79881	-207.28197	-258.24225	-16.99512	410.50241	165.29800	97.27419	400.16260	-128.27892	1229.02576	-314.17007	-116.86500	597.99213	-346.39670	43.46442	594.29431	-346.68292	-115.99200	540.65637	598.14795	39.79812	530.77704	598.28668	
6086	60.850	-199.43176	156.48299	-229.68611	126.52371	35.00195	-207.11304	-258.45334	-17.16503	410.64832	165.88150	104.07585	399.64713	-126.56318	1229.70081	-312.69815	-115.27686	598.28247	-346.10797	43.99740	594.84070	-346.49728	-115.70833	539.08514	598.08832	40.24228	528.96136	597.62982	
6087	60.860	-199.36903	161.81163	-229.22458	126.34286	35.04590	-206.88120	-259.04553	-17.40747	410.95224	166.46077	108.60117	399.55157	-125.86195	1230.43298	-311.63757	-115.40292	599.23114	-346.33746	45.37981	595.05548	-346.42145	-114.73378	537.83093	597.81970	41.13009	527.52362	597.61005	
6088	60.870	-199.45499	164.60521	-228.43961	126.07343	35.13091	-206.66411	-259.40491	-17.82116	411.15915	168.70743	111.36959	399.97781	-125.23277	1231.20544	-310.13550	-113.84558	599.44495	-346.39972	46.27774	595.22614	-346.54068	-114.20453	536.17163	597.93646	41.36778	526.13190	597.64185	
6089	60.880	-199.15268	164.20543	-226.93529	125.90416	35.04457	-206.59596	-259.66330	-18.22871	411.00378	169.63348	110.72584	400.63531	-124.30303	1231.42603	-308.85974	-112.63161	599.56799	-346.30710	48.13672	595.52393	-346.07437	-113.88284	535.50433	597.82861	41.86478	525.01550	597.58698	
6090	60.890	-198.85027	161.65398	-225.13414	125.80247	35.12731	-206.41298	-260.05212	-18.56950	410.98615	171.46596	107.40558	402.12482	-122.61182	1231.41418	-307.69510	-111.34864	599.79529	-346.31845	48.93558	595.68744	-346.09100	-113.18272	534.82532	597.71558	42.58827	524.32825	597.63654	
